<?xml version="1.0" encoding="utf-8"?>
<!-- Generator: Adobe Illustrator 22.0.1, SVG Export Plug-In . SVG Version: 6.00 Build 0)  -->
<svg version="1.1" id="Calque_1" xmlns="http://www.w3.org/2000/svg" xmlns:xlink="http://www.w3.org/1999/xlink" x="0px" y="0px"
	 viewBox="0 0 556.5 156.9" style="enable-background:new 0 0 556.5 156.9;" xml:space="preserve">
<style type="text/css">
	.st0{fill:#FFFFFF;}
</style>
<title>neobrain_blue</title>
<g id="Calque_1_1_">
	<path class="st0" d="M24.7,54.5v76H9.9v-105h20.7l16.9,62.9V25.5h14.7v105h-17L24.7,54.5z"/>
	<path class="st0" d="M98.8,69.8h22.7v15H98.8v30.8h28.5v15h-45v-105h45v15H98.8V69.8z"/>
	<path class="st0" d="M144.4,50.7c0-17,8.9-26.4,25-26.4s25,9.4,25,26.4v54.6c0,17-8.9,26.4-25,26.4s-25-9.5-25-26.4V50.7z
		 M160.9,106.4c0,7.7,3.3,10.3,8.6,10.3s8.6-2.7,8.6-10.4V49.7c0-7.7-3.3-10.3-8.6-10.3s-8.6,2.7-8.6,10.3V106.4z"/>
	<path class="st0" d="M238.3,25.5c17.2,0,24.4,7.9,24.4,24.1v3.8c0,10.8-3.3,17.7-10.6,21.2c9,3.4,12.3,11.2,12.3,22.5v8.6
		c0,16.2-8.4,24.9-25,24.9h-26v-105L238.3,25.5z M229.9,40.5v27.7h6.4c6.1,0,9.9-2.7,9.9-11.1v-5.8c0-7.7-2.6-10.8-8.4-10.8H229.9z
		 M229.9,83.3v32.2h9.4c5.6,0,8.6-2.6,8.6-10.3V96c0-9.8-3-12.8-10.6-12.8L229.9,83.3z"/>
	<path class="st0" d="M317,130.5c-0.1-0.8-0.5-1.4-0.6-1.9c-0.6-1.8-0.8-3.8-0.8-5.7c-0.1-1.3-0.1-3.2-0.1-5.2v-16.5
		c0-9.8-3.1-13.3-10.8-13.3H299v42.8h-16.5v-105h24.9c17.2,0,24.5,7.9,24.5,24.1v8.2c0,10.8-3.6,17.8-10.8,21.3
		c8.4,3.4,11,11.4,11,22.3v16.2c0,5.2,0.1,8.7,1.8,12.8L317,130.5z M299,40.5v32.3h6.5c6.1,0,9.9-2.7,9.9-11.1V51.3
		c0-7.7-2.5-10.8-8.4-10.8L299,40.5z"/>
	<path class="st0" d="M457.4,25.5h16.5v105h-16.5V25.5z"/>
	<path class="st0" d="M508.9,54.5v76H494v-105h20.7l17,62.8V25.5h14.7v105h-16.9L508.9,54.5z"/>
</g>
<g id="Calque_2_1_">
	<path class="st0" d="M433.9,107.6c-0.5-0.7-0.5-0.8-0.8-1.2c1.2,0.1,2.3-0.8,2.4-2c0.1-1.1-0.7-2.1-1.8-2.3c-1.2-0.1-2.4,0.2-3.3,1
		c-0.9,0.9-1.4,2.1-1.4,3.4c0,1.3,0.5,2.6,1.3,3.6c0.7,0.8,1,1.9,0.9,2.9c0,1.7-0.6,3-9.1,4.4c-5.8,0.9-19.3,5.8-19.3,10.9
		c0,1.2,0.9,2.3,2.2,2.4c1.1,0.1,2.1-0.7,2.2-1.8c0-0.1,0-0.1,0-0.2c0.8-1.6,8.5-5.8,15.7-6.9c5.4-0.9,12.8-2.1,12.8-8.7
		C435.6,111,435,109.1,433.9,107.6z"/>
	<path class="st0" d="M442.1,88.9c0-3.1-6.4-14.5-9.6-20.1c0.6-3.5,0.9-7,0.8-10.6c0-9.3-12.4-32.8-41.6-32.8
		c-28.7,0-41.6,21.7-41.6,37.2c0,10.9,6.5,22.1,11.6,31.1c3,5.2,5.9,10.2,5.9,12.7c0,5.6-9.1,16.6-12.5,20.4
		c-0.8,0.9-0.8,2.3,0.1,3.1c0.9,0.8,2.3,0.8,3.1-0.1c1.4-1.5,13.7-15.1,13.7-23.4c0-3.7-2.8-8.6-6.5-14.8c-4.9-8.5-11-19.2-11-28.9
		c0-10.7,9.1-32.8,37.2-32.8c27.8,0,37.2,22.4,37.2,28.4c0.1,3.5-0.2,7-0.9,10.4c-0.1,0.6-0.1,1.1,0.2,1.6
		c4.4,7.6,9.2,16.8,9.4,18.5c-0.2,0.6-2.5,1.8-4.8,2.3c-1.2,0.2-1.9,1.4-1.7,2.6c0,0.1,0,0.2,0.1,0.2l1.7,5.3l-1.2,1.2
		c-0.9,0.8-1,2.2-0.2,3.1c0.8,0.9,2.2,1,3.1,0.2c0.1-0.1,0.1-0.1,0.2-0.2l2.2-2.2c0.6-0.6,0.8-1.5,0.5-2.2l-1.5-4.4
		C438.6,93.9,442.1,92.1,442.1,88.9z"/>
	<path class="st0" d="M388.9,78.6l-12.5-12.5v-6.9l3.7-3.7c0.8-0.9,0.7-2.3-0.2-3.1c-0.8-0.7-2.1-0.7-2.9,0l-4.4,4.4
		c-0.4,0.4-0.6,1-0.6,1.5V67c0,0.6,0.2,1.1,0.6,1.6L385.2,81v47.2c0.1,1.2,1.1,2.1,2.3,2c1.1-0.1,2-0.9,2-2V80.1
		C389.6,79.5,389.3,79,388.9,78.6z"/>
	<path class="st0" d="M418,64.8h-29.7l-3.7-3.7c-0.8-0.9-2.2-1-3.1-0.2c-0.9,0.8-1,2.2-0.2,3.1c0.1,0.1,0.1,0.1,0.2,0.2l4.4,4.4
		c0.4,0.4,1,0.6,1.5,0.6H418c1.2-0.1,2.1-1.1,2-2.3C420,65.7,419.1,64.9,418,64.8z"/>
	<path class="st0" d="M419.6,52.3c-0.9-0.9-2.2-0.9-3.1,0l-3.7,3.7h-12.2c-1.2,0.1-2.1,1.1-2,2.3c0.1,1.1,0.9,2,2,2h13.1
		c0.6,0,1.1-0.2,1.5-0.6l4.4-4.4C420.4,54.5,420.4,53.2,419.6,52.3z"/>
	<path class="st0" d="M410.8,43.6c-0.9-0.9-2.2-0.9-3.1,0l-3.7,3.7h-7.8c-0.6,0-1.1,0.2-1.5,0.6l-4.4,4.4c-0.8,0.9-0.7,2.3,0.2,3.1
		c0.8,0.7,2.1,0.7,2.9,0l3.7-3.7h7.8c0.6,0,1.1-0.2,1.5-0.6l4.4-4.4C411.6,45.8,411.7,44.4,410.8,43.6
		C410.8,43.6,410.8,43.6,410.8,43.6z"/>
	<path class="st0" d="M388.9,43.6l-4.4-4.4c-0.4-0.4-1-0.6-1.5-0.6h-8.8c-0.6,0-1.1,0.2-1.5,0.6l-8.7,8.7c-0.4,0.4-0.6,1-0.6,1.5
		v21.9c0,0.6,0.2,1.1,0.6,1.5l12.5,12.5v42.8c0.1,1.2,1.1,2.1,2.3,2c1.1-0.1,2-0.9,2-2V84.5c0-0.6-0.2-1.1-0.6-1.5l-12.5-12.5V50.4
		l7.5-7.5h6.9l3.7,3.7c0.8,0.9,2.2,1,3.1,0.2c0.9-0.8,1-2.2,0.2-3.1C389.1,43.7,389,43.6,388.9,43.6L388.9,43.6z"/>
	<path class="st0" d="M378.6,49.5c-2.4,0-4.4,1.9-4.4,4.4s1.9,4.4,4.4,4.4c2.4,0,4.4-1.9,4.4-4.4c0,0,0,0,0,0
		C383,51.5,381,49.5,378.6,49.5z"/>
	<path class="st0" d="M415.2,74.2c-0.9-0.9-2.2-0.9-3.1,0l-3.7,3.7h-6.9l-3.7-3.7c-0.9-0.8-2.3-0.7-3.1,0.2c-0.7,0.8-0.7,2.1,0,2.9
		l4.4,4.4c0.4,0.4,1,0.6,1.5,0.6h8.8c0.6,0,1.1-0.2,1.5-0.6l4.4-4.4C416.1,76.4,416.1,75,415.2,74.2
		C415.2,74.2,415.2,74.2,415.2,74.2z"/>
	<path class="st0" d="M402.1,113.6l-3.7-3.7V94.1l3.7-3.7c0.8-0.9,0.6-2.3-0.4-3.1c-0.8-0.6-1.9-0.6-2.7,0l-4.4,4.4
		c-0.4,0.4-0.6,1-0.6,1.6v17.5c0,0.6,0.2,1.1,0.6,1.6l4.4,4.4c0.9,0.8,2.3,0.8,3.1-0.1C402.9,115.7,402.9,114.4,402.1,113.6
		L402.1,113.6z"/>
	<path class="st0" d="M423.9,78.6c-0.9-0.9-2.2-0.9-3.1,0l-17.5,17.5c-0.4,0.4-0.6,1-0.6,1.6v8.8c-0.1,1.2,0.8,2.3,2,2.3
		c1.2,0.1,2.3-0.8,2.3-2c0-0.1,0-0.2,0-0.3v-7.8l16.9-16.9C424.8,80.8,424.8,79.4,423.9,78.6z"/>
	<path class="st0" d="M400.5,110.7c-2.4,0-4.4,2-4.4,4.4s2,4.4,4.4,4.4c2.4,0,4.4-2,4.4-4.4l0,0
		C404.9,112.7,402.9,110.7,400.5,110.7z"/>
	<path class="st0" d="M419.6,96.1c-0.9-0.9-2.2-0.9-3.1,0l-4.4,4.4c-0.4,0.4-0.6,1-0.6,1.6v8.8c0.1,1.2,1.1,2.1,2.3,2
		c1.1-0.1,2-0.9,2-2v-7.8l3.7-3.7C420.4,98.3,420.4,96.9,419.6,96.1z"/>
	<path class="st0" d="M409.3,40.7c-2.4,0-4.4,2-4.4,4.4s2,4.4,4.4,4.4c2.4,0,4.4-2,4.4-4.4c0,0,0,0,0,0
		C413.6,42.7,411.7,40.7,409.3,40.7z"/>
</g>
</svg>
